<svg width="687" height="580" viewBox="0 0 687 580" fill="none" xmlns="http://www.w3.org/2000/svg">
<path d="M136.871 0.0762332H549.516C554.084 0.0755557 558.588 1.22773 562.658 3.43857C566.729 5.64942 570.251 8.85617 572.937 12.7967L683.61 175.076C685.578 177.963 686.546 181.489 686.351 185.052C686.156 188.615 684.809 191.996 682.539 194.62L353.818 574.413C352.463 575.975 350.82 577.221 348.991 578.074C347.163 578.926 345.189 579.366 343.194 579.366C341.198 579.366 339.225 578.926 337.396 578.074C335.568 577.221 333.924 575.975 332.569 574.413L3.84833 194.65C1.57149 192.025 0.219959 188.638 0.0245989 185.068C-0.170761 181.498 0.802168 177.966 2.7772 175.076L113.451 12.7967C116.137 8.85617 119.659 5.64942 123.729 3.43857C127.8 1.22773 132.303 0.0755557 136.871 0.0762332Z" fill="black"/>
<path d="M341.558 69.916C342.056 67.8848 344.944 67.8848 345.442 69.916L378.049 202.799C378.358 204.059 377.404 205.276 376.106 205.276H310.894C309.596 205.276 308.642 204.059 308.952 202.799L341.558 69.916Z" fill="white"/>
<path d="M345.442 331.084C344.944 333.115 342.056 333.115 341.558 331.084L308.951 198.201C308.642 196.941 309.596 195.724 310.894 195.724H376.106C377.404 195.724 378.358 196.941 378.048 198.201L345.442 331.084Z" fill="white"/>
<path d="M212.916 204.83C210.885 204.332 210.885 201.444 212.916 200.945L345.799 168.339C347.059 168.03 348.276 168.984 348.276 170.282V235.494C348.276 236.791 347.059 237.746 345.799 237.436L212.916 204.83Z" fill="white"/>
<path d="M474.084 200.945C476.115 201.444 476.115 204.332 474.084 204.83L341.201 237.436C339.941 237.746 338.724 236.791 338.724 235.494V170.282C338.724 168.984 339.941 168.03 341.201 168.339L474.084 200.945Z" fill="white"/>
</svg>
